<svg id="Layer_35" enable-background="new 0 0 64 64" height="512" viewBox="0 0 64 64" width="512" xmlns="http://www.w3.org/2000/svg" xmlns:xlink="http://www.w3.org/1999/xlink"><linearGradient id="SVGID_1_" gradientUnits="userSpaceOnUse" x1="32" x2="32" y1="63" y2="1"><stop offset="0" stop-color="#9f2fff"/><stop offset="1" stop-color="#0bb1d3"/></linearGradient><path d="m21.5 47.245-1 1.732c-4.626-2.673-7.5-7.645-7.5-12.977v-4h2v4c0 4.62 2.491 8.928 6.5 11.245zm18.132 3.755h23.368v1c0 3.685-2.863 6.706-6.48 6.974l-.92 1.226c-1.315 1.753-3.408 2.8-5.6 2.8h-36c-2.192 0-4.285-1.047-5.6-2.8l-.92-1.227c-3.617-.267-6.48-3.289-6.48-6.973v-1h15.368c-4.609-3.56-7.368-9.044-7.368-15v-19h21.586l14.878-14.878c.723-.724 1.685-1.122 2.707-1.122 2.112 0 3.829 1.717 3.829 3.829 0 1.022-.398 1.984-1.122 2.707l-9.464 9.464h5.586v4h3c4.962 0 9 4.038 9 9 0 9.677-7.446 17.87-17.026 18.866-.714.772-1.499 1.483-2.342 2.134zm7.368-28v2h3c2.757 0 5 2.243 5 5 0 6.28-3.919 11.861-9.79 14.042-.405.866-.875 1.698-1.406 2.493 7.565-1.748 13.196-8.578 13.196-16.535 0-3.86-3.14-7-7-7zm0 13c0 1.86-.274 3.673-.784 5.398 4.13-2.249 6.784-6.588 6.784-11.398 0-1.654-1.346-3-3-3h-3zm-13.586-19h5.172l10.878-10.878c.346-.346.536-.805.536-1.293 0-1.009-.82-1.829-1.829-1.829-.488 0-.947.19-1.293.536zm-13.376 34h15.924c5.579-2.966 9.038-8.689 9.038-15v-17h-34v17c0 6.311 3.459 12.035 9.038 15zm33.962 8h-44c.939 1.252 2.435 2 4 2h36c1.565 0 3.061-.748 4-2zm6.899-6h-57.798c.464 2.279 2.484 4 4.899 4h48c2.415 0 4.435-1.721 4.899-4zm-45.899-25h-2v2h2zm18-27h-2c0 .797-.302 1.15-.759 1.683-.553.645-1.241 1.448-1.241 2.985s.688 2.339 1.241 2.984c.457.534.759.886.759 1.683 0 .796-.302 1.148-.759 1.682-.553.645-1.241 1.447-1.241 2.983h2c0-.796.302-1.148.759-1.681.553-.645 1.241-1.447 1.241-2.984s-.688-2.34-1.241-2.985c-.457-.533-.759-.885-.759-1.682s.302-1.15.759-1.683c.553-.645 1.241-1.448 1.241-2.985zm-7 0h-2c0 .797-.302 1.15-.759 1.683-.553.645-1.241 1.448-1.241 2.985s.688 2.339 1.241 2.984c.457.534.759.886.759 1.683 0 .796-.302 1.148-.759 1.682-.553.645-1.241 1.447-1.241 2.983h2c0-.796.302-1.148.759-1.681.553-.645 1.241-1.447 1.241-2.984s-.688-2.34-1.241-2.985c-.457-.533-.759-.885-.759-1.682s.302-1.15.759-1.683c.553-.645 1.241-1.448 1.241-2.985zm-11 14h2c0-.796.302-1.148.759-1.681.553-.645 1.241-1.447 1.241-2.984s-.688-2.34-1.241-2.985c-.457-.533-.759-.885-.759-1.682s.302-1.15.759-1.683c.553-.645 1.241-1.448 1.241-2.985h-2c0 .797-.302 1.15-.759 1.683-.553.645-1.241 1.448-1.241 2.985s.688 2.339 1.241 2.984c.457.534.759.886.759 1.683 0 .796-.302 1.148-.759 1.682-.553.645-1.241 1.447-1.241 2.983zm28 19h-2v2h2zm0-13h-2v11h2z" fill="url(#SVGID_1_)"/></svg>