<svg height="496pt" viewBox="0 0 496 496" width="496pt" xmlns="http://www.w3.org/2000/svg" xmlns:xlink="http://www.w3.org/1999/xlink"><linearGradient id="a" gradientUnits="userSpaceOnUse" x1="248" x2="248" y1="496" y2="0"><stop offset="0" stop-color="#9f2fff"/><stop offset="1" stop-color="#0bb1d3"/></linearGradient><path d="m496 168c0-92.640625-75.367188-168-168-168s-168 75.359375-168 168c0 81.535156 58.414062 149.632812 135.574219 164.792969l-5.597657 67.207031h-25.976562c-13.230469 0-24 10.769531-24 24v32h-168c-4.414062 0-8-3.59375-8-8v-72h16v-16h-32v88c0 13.230469 10.769531 24 24 24h168c0 13.230469 10.769531 24 24 24h128c13.230469 0 24-10.769531 24-24v-48c0-13.230469-10.769531-24-24-24h-25.976562l-5.597657-67.207031c77.160157-15.160157 135.574219-83.257813 135.574219-164.792969zm-320 0c0-83.816406 68.183594-152 152-152s152 68.183594 152 152-68.183594 152-152 152-152-68.183594-152-152zm216 248c4.414062 0 8 3.59375 8 8v48c0 4.40625-3.585938 8-8 8h-128c-4.414062 0-8-3.59375-8-8v-48c0-4.40625 3.585938-8 8-8h24.640625l-1.335937 16h81.390624l-1.335937-16zm-47.359375-80 6.664063 80h-46.609376l6.664063-80zm32.078125-104.457031-14.808594-29.605469c.011719-.007812.019532-.015625.027344-.027344l29.597656 14.800782 72.464844-27.167969v-43.085938l-72.464844-27.167969-29.597656 14.800782c-.007812-.011719-.015625-.019532-.027344-.027344l14.808594-29.605469-27.175781-72.457031h-43.09375l-27.167969 72.457031 14.808594 29.605469c-.011719.007812-.019532.015625-.027344.027344l-29.597656-14.800782-72.464844 27.167969v43.085938l72.464844 27.167969 29.597656-14.800782c.007812.011719.015625.019532.027344.027344l-14.808594 29.605469 27.175781 72.457031h43.09375zm-80.71875-63.542969c0-17.648438 14.351562-32 32-32s32 14.351562 32 32-14.351562 32-32 32-32-14.351562-32-32zm96.464844-31.289062 55.535156 20.832031v20.914062l-55.535156 20.832031-21.207032-10.609374c3.007813-6.273438 4.742188-13.273438 4.742188-20.679688s-1.734375-14.40625-4.753906-20.679688zm-95.746094-33.167969 20.824219-55.542969h20.90625l20.832031 55.542969-10.601562 21.210937c-6.273438-3.019531-13.273438-4.753906-20.679688-4.753906s-14.40625 1.734375-20.679688 4.753906zm-33.183594 95.746093-55.535156-20.832031v-20.914062l55.535156-20.832031 21.207032 10.609374c-3.007813 6.273438-4.742188 13.273438-4.742188 20.679688s1.734375 14.40625 4.753906 20.679688zm54.007813 88.710938-20.832031-55.542969 10.601562-21.210937c6.28125 3.019531 13.28125 4.753906 20.6875 4.753906s14.40625-1.734375 20.679688-4.753906l10.601562 21.210937-20.824219 55.542969zm-285.542969 8h48v16h-48zm48-16h-48v-16h48zm-48 48h48v16h-48zm288 120h16v16h-16zm32 0h16v16h-16zm-64 0h16v16h-16zm-272-328c0 13.230469 10.769531 24 24 24h8v88h-16v16h32v-104h8c13.230469 0 24-10.769531 24-24v-40h16v-48h-24v-32h-16v32h-32v-32h-16v32h-24v48h16zm64 0c0 4.40625-3.585938 8-8 8h-32c-4.414062 0-8-3.59375-8-8v-40h48zm-64-72h80v16h-80zm0 0" fill="url(#a)"/></svg>