<svg id="Layer_5" enable-background="new 0 0 64 64" height="512" viewBox="0 0 64 64" width="512" xmlns="http://www.w3.org/2000/svg" xmlns:xlink="http://www.w3.org/1999/xlink"><linearGradient id="SVGID_1_" gradientUnits="userSpaceOnUse" x1="32" x2="32" y1="63" y2=".719"><stop offset="0" stop-color="#9f2fff"/><stop offset="1" stop-color="#0bb1d3"/></linearGradient><path d="m16.316 23.051c.067.023 6.684 2.317 6.684 9.949h-2c0-4.345-2.536-6.529-4.109-7.465-.338 2.27-1.411 3.661-2.455 5.014-1.253 1.623-2.436 3.157-2.436 6.451 0 5.497 4.666 8 9 8v2c-5.466 0-11-3.435-11-10 0-3.976 1.516-5.94 2.853-7.673 1.152-1.494 2.147-2.784 2.147-5.327v-1.387zm46.684 29.949c0 3.86-3.14 7-7 7h-11.424c-.774 1.763-2.531 3-4.576 3h-6c-1.947 0-3.619-1.13-4.445-2.758-1.28 1.673-3.291 2.758-5.555 2.758h-16c-3.86 0-7-3.14-7-7s3.14-7 7-7h16c.717 0 1.409.109 2.061.31.482-.776 1.112-1.43 1.834-1.956-3.535-1.193-5.895-3.94-5.895-7.305 0-2.471 1.279-4.218 2.408-5.76.854-1.166 1.592-2.174 1.592-3.24v-1.366l1.302.413c.064.02.746.242 1.506.698 1.74-3.296 5.682-4.677 5.869-4.741l1.323-.451v1.398c0 1.004 1.149 2.714 2.261 4.367 1.753 2.606 3.739 5.56 3.739 8.682 0 2.559-.999 4.583-2.819 5.951h3.819c4.334 0 9-2.503 9-8 0-3.294-1.183-4.828-2.436-6.452-1.044-1.353-2.117-2.744-2.456-5.014-1.57.936-4.108 3.12-4.108 7.466h-2c0-7.632 6.617-9.926 6.684-9.949l1.316-.438v1.387c0 2.543.995 3.833 2.147 5.327 1.337 1.733 2.853 3.697 2.853 7.673 0 3.656-1.719 6.338-4.183 8h6.183c3.86 0 7 3.14 7 7zm-31.432-7.014c.128.005.253.014.383.014.134 0 .276-.004.418-.007 1.456-.038 2.631-1.229 2.631-2.695 0-.611-.21-1.21-.592-1.688l-2.408-3.009-2.408 3.01c-.382.477-.592 1.077-.592 1.687 0 1.444 1.141 2.617 2.568 2.688zm-4.256-1.047c-.193-.513-.312-1.061-.312-1.641 0-1.063.366-2.106 1.03-2.937l3.97-4.962 3.97 4.962c.665.831 1.03 1.874 1.03 2.937 0 .677-.15 1.318-.409 1.9 1.877-.785 3.409-2.297 3.409-5.149 0-2.513-1.806-5.197-3.398-7.566-1.001-1.489-1.904-2.832-2.335-4.068-1.202.611-3.097 1.833-3.892 3.745.373.508.625 1.119.625 1.84v1h-2v-1c0-.615-.616-1.143-1.237-1.508-.355 1.085-1.056 2.043-1.741 2.979-1.04 1.42-2.022 2.761-2.022 4.578 0 2.075 1.282 3.834 3.312 4.89zm1.688 11.061c0-2.757-2.243-5-5-5h-16c-2.757 0-5 2.243-5 5s2.243 5 5 5h16c2.757 0 5-2.243 5-5zm14 2c0-1.654-1.346-3-3-3h-6c-1.654 0-3 1.346-3 3s1.346 3 3 3h6c1.654 0 3-1.346 3-3zm18-5c0-2.757-2.243-5-5-5h-23.702-.298c-1.663 0-3.192.837-4.114 2.182 1.4.938 2.437 2.369 2.877 4.04.874-.751 1.996-1.222 3.237-1.222h6c2.757 0 5 2.243 5 5h11c2.757 0 5-2.243 5-5zm-23.243-51.97c-1.645.411-4.757 2.188-4.757 5.97h2c0-1.937 1.177-3.002 2.114-3.544.408 2.523 1.84 4.194 3.126 5.695 1.481 1.727 2.76 3.219 2.76 5.849v2h2v-2c0-3.37-1.722-5.378-3.241-7.151-1.48-1.727-2.759-3.219-2.759-5.849v-1.281zm-11.514 4-1.243-.311v1.281c0 2.966-1.652 5.141-3.25 7.244-1.414 1.862-2.75 3.621-2.75 5.756v1h2v-1c0-1.461 1.086-2.891 2.343-4.546 1.475-1.942 3.12-4.107 3.549-6.994.937.543 2.108 1.609 2.108 3.54h2c0-3.782-3.112-5.559-4.757-5.97zm3 9-1.243-.311v1.281c0 2.929-1.631 4.804-3.208 6.617-1.373 1.579-2.792 3.211-2.792 5.383h2c0-1.424 1.066-2.65 2.301-4.07 1.419-1.632 3.137-3.607 3.587-6.472.937.542 2.112 1.607 2.112 3.542h2v-2c0-1.935 1.176-3.001 2.112-3.543.45 2.866 2.167 4.841 3.587 6.473 1.235 1.42 2.301 2.646 2.301 4.07h2c0-2.172-1.419-3.804-2.792-5.383-1.577-1.813-3.208-3.688-3.208-6.617v-1.281l-1.243.311c-1.302.326-3.516 1.511-4.386 3.863-1.008-1.054-2.268-1.648-3.128-1.863zm-17.243 38.97h-6v2h6zm-3 6h6v-2h-6zm10-4h4v-2h-4zm14 4h4v-2h-4zm-1-7h6v-2h-6zm21-2h-4v2h4zm0 6h4v-2h-4z" fill="url(#SVGID_1_)"/></svg>