<svg height="496pt" viewBox="0 0 496 496" width="496pt" xmlns="http://www.w3.org/2000/svg" xmlns:xlink="http://www.w3.org/1999/xlink"><linearGradient id="a" gradientUnits="userSpaceOnUse" x1="248" x2="248" y1="496" y2="0"><stop offset="0" stop-color="#9f2fff"/><stop offset="1" stop-color="#0bb1d3"/></linearGradient><path d="m0 480h16v16h-16zm496-272c0 35.289062-28.710938 64-64 64-19.144531 0-36.257812-8.535156-48-21.902344v88.742188c8.910156 3.144531 16.734375 8.824218 22.457031 16.527344 5.4375-2.152344 11.34375-3.367188 17.542969-3.367188 26.472656 0 48 21.527344 48 48 0 2.046875-.160156 4.105469-.488281 6.246094 15.074219 8.410156 24.488281 24.152344 24.488281 41.753906 0 26.472656-21.527344 48-48 48h-416v-16h16v-48h-32v-48h32v-48h-32v-48h32v-19.3125l32-32 32 32v19.3125h16v-64h-24c-30.871094 0-56-25.128906-56-56v-8h40c15.664062 0 29.824219 6.480469 40 16.886719v-72.886719h-24c-30.871094 0-56-25.128906-56-56v-8h40c5.640625 0 11.167969.878906 16.519531 2.550781l31.480469-39.359375 31.480469 39.351563c5.351562-1.664063 10.878906-2.542969 16.519531-2.542969h40v8c0 30.871094-25.128906 56-56 56h-24v32.886719c10.175781-10.40625 24.335938-16.886719 40-16.886719h40v8c0 30.871094-25.128906 56-56 56h-24v68.6875l16-16 32 32v19.3125h16v-19.3125l32-32 32 32v19.3125h32v48h-32v37.726562c8.753906-13.261718 23.6875-21.726562 40-21.726562 6.046875 0 11.984375 1.207031 17.550781 3.390625 8.753907-11.742187 22.707031-19.390625 38.449219-19.390625v-85.902344c-11.742188 13.367188-28.855469 21.902344-48 21.902344-35.289062 0-64-28.710938-64-64 0-21.152344 10.367188-40.671875 27.496094-52.550781-2.304688-6.210938-3.496094-12.816407-3.496094-19.449219 0-23.054688 14.359375-43.617188 35.230469-52-2.140625-6.449219-3.230469-13.144531-3.230469-20 0-35.289062 28.710938-64 64-64s64 28.710938 64 64c0 6.855469-1.089844 13.550781-3.230469 20 20.871094 8.382812 35.230469 28.945312 35.230469 52 0 6.632812-1.191406 13.238281-3.496094 19.449219 17.128906 11.878906 27.496094 31.398437 27.496094 52.550781zm-224 112h16v-16h-16zm-127.191406-152h23.191406c19.320312 0 35.480469-13.769531 39.191406-32h-23.191406c-19.320312 0-35.480469 13.769531-39.191406 32zm31.191406-101.609375c0 8.007813-2.558594 15.402344-6.839844 21.503906 18.792969-.550781 34.390625-14.039062 38.039063-31.894531h-23.199219c-3.152344 0-6.246094.464844-9.28125 1.199219.761719 3 1.28125 6.074219 1.28125 9.191406zm-73.160156 21.503906c-4.28125-6.101562-6.839844-13.496093-6.839844-21.503906 0-3.117187.519531-6.191406 1.289062-9.191406-3.042968-.734375-6.136718-1.199219-9.289062-1.199219h-23.191406c3.640625 17.863281 19.238281 31.351562 38.03125 31.894531zm24.351562 120.105469c-3.71875-18.230469-19.871094-32-39.191406-32h-23.191406c3.71875 18.230469 19.871094 32 39.191406 32zm-79.191406 192h-16v16h16zm0-96h-16v16h16zm48-28.6875-16-16-16 16v204.6875h32zm32 156.6875h-16v48h16zm0-32h-16v16h16zm0-64h-16v48h16zm0-32h-16v16h16zm96 70.496094c7.128906-4.128906 15.335938-6.496094 24-6.496094 2.726562 0 5.390625.28125 8 .71875v-93.40625l-16-16-16 16zm-32-54.496094h16v-16h-16zm0 82.800781c3.433594-1.214843 7.023438-2.097656 10.769531-2.503906 1.320313-3.792969 3.0625-7.34375 5.230469-10.625v-53.671875h-16zm-53.609375-314.800781c11.914063 0 21.609375-9.695312 21.609375-21.609375 0-4.886719-1.679688-9.6875-4.734375-13.503906l-19.265625-24.078125-19.257812 24.085937c-3.0625 3.808594-4.742188 8.609375-4.742188 13.496094 0 11.914063 9.695312 21.609375 21.609375 21.609375zm21.609375 360c0-14.167969 6.207031-26.878906 16-35.679688v-137.007812l-16-16-16 16v204.6875h28.320312c-7.632812-8.503906-12.320312-19.695312-12.320312-32zm208-96c-17.648438 0-32 14.351562-32 32h-16c0-4.96875.761719-9.769531 2.167969-14.28125-3.257813-1.085938-6.679688-1.71875-10.167969-1.71875-11.664062 0-22.367188 6.433594-27.953125 16.40625 7.417969 8.457031 11.953125 19.488281 11.953125 31.59375h-16c0-17.648438-14.351562-32-32-32-12.199219 0-23.023438 7.03125-28.390625 17.480469 20.871094 5.207031 36.390625 24.0625 36.390625 46.519531h-16c0-17.648438-14.351562-32-32-32s-32 14.351562-32 32 14.351562 32 32 32h240c17.648438 0 32-14.351562 32-32 0-13.273438-8.054688-24.960938-20.527344-29.777344l-6.777344-2.613281 1.953126-6.992187c.917968-3.3125 1.351562-6.058594 1.351562-8.617188 0-17.648438-14.351562-32-32-32s-32 14.351562-32 32h-16c0-14.488281 6.480469-27.472656 16.664062-36.28125-6-7.320312-14.945312-11.71875-24.664062-11.71875zm112-144c0-17.742188-9.742188-33.976562-25.425781-42.351562l-7.0625-3.769532 3.777343-7.0625c3.125-5.839844 4.710938-12.175781 4.710938-18.816406 0-18.761719-13.304688-35.207031-31.640625-39.113281l-10.136719-2.160157 4.648438-9.253906c3.402344-6.777344 5.128906-13.992187 5.128906-21.472656 0-26.472656-21.527344-48-48-48s-48 21.527344-48 48c0 7.480469 1.726562 14.695312 5.128906 21.480469l4.648438 9.253906-10.136719 2.160156c-18.335937 3.898438-31.640625 20.34375-31.640625 39.105469 0 6.640625 1.585938 12.976562 4.710938 18.824219l3.777343 7.0625-7.0625 3.769531c-15.683593 8.367188-25.425781 24.601562-25.425781 42.34375 0 26.472656 21.527344 48 48 48s48-21.527344 48-48v-12.183594l-31.183594-25.3125-19.160156 19.160156-11.3125-11.3125 19.359375-19.359374-12.359375-18.542969 13.3125-8.875 15.3125 22.96875 26.03125 20.808593v-99.070312l-20.441406-13.625 8.875-13.3125 27.566406 18.375v21.335938l11.558594-7.710938 8.875 13.3125-20.433594 13.625v35.070312l27-21.597656 10 12.492188-15.238281 12.195312 15.894531 15.894532-11.3125 11.3125-17.160156-17.160157-9.183594 7.359375v44.152344c0 .34375.039062.671875.046875 1.015625l39.367187-26.246094 36.160157 18.078125-7.160157 14.3125-27.839843-13.921875-37.0625 24.707031c7.121093 17.597657 24.359375 30.054688 44.488281 30.054688 26.472656 0 48-21.527344 48-48zm0 120v8h-40c-22.054688 0-40-17.945312-40-40v-8h40c22.054688 0 40 17.945312 40 40zm-17.367188-8c-3.304687-9.3125-12.199218-16-22.632812-16h-22.632812c3.304687 9.3125 12.199218 16 22.632812 16zm0 0" fill="url(#a)"/></svg>