<?xml version="1.0" encoding="iso-8859-1"?>
<!-- Generator: Adobe Illustrator 22.1.0, SVG Export Plug-In . SVG Version: 6.00 Build 0)  -->
<svg xmlns="http://www.w3.org/2000/svg" xmlns:xlink="http://www.w3.org/1999/xlink" version="1.1" id="Layer_1_1_" x="0px" y="0px" viewBox="0 0 64 64" style="enable-background:new 0 0 64 64;" xml:space="preserve" width="512" height="512">
<linearGradient id="SVGID_1_" gradientUnits="userSpaceOnUse" x1="32" y1="1" x2="32" y2="63" gradientTransform="matrix(1 0 0 -1 0 64)">
	<stop offset="0" style="stop-color:#9F2FFF"/>
	<stop offset="1" style="stop-color:#0BB1D3"/>
</linearGradient>
<path style="fill:url(#SVGID_1_);" d="M55,47c-0.02,0-0.039,0.003-0.059,0.003c-0.451-4.069-3.625-7.318-7.653-7.9  C49.718,35.17,51,30.677,51,26C51,12.215,39.785,1,26,1S1,12.215,1,26c0,11.798,8.122,21.82,19.491,24.367  C19.556,51.676,19,53.273,19,55c0,4.411,3.589,8,8,8h28c4.411,0,8-3.589,8-8S59.411,47,55,47z M3,26C3,13.318,13.318,3,26,3  s23,10.318,23,23c0,4.714-1.42,9.221-4.089,13.073c-1.859,0.226-3.565,1.016-4.914,2.222C38.356,39.828,36.224,39,34,39  c-4.71,0-8.581,3.639-8.962,8.254c-1.075,0.273-2.062,0.76-2.914,1.419C11.04,46.792,3,37.265,3,26z M55,61H27c-3.309,0-6-2.691-6-6  s2.691-6,6-6c1.626,0,3.148,0.64,4.286,1.802l1.429-1.4c-1.498-1.53-3.498-2.377-5.636-2.397c0.486-3.388,3.4-6.004,6.921-6.004  c1.731,0,3.39,0.645,4.667,1.788c-0.624,0.877-1.103,1.873-1.383,2.963l1.937,0.498C40.016,43.158,42.804,41,46,41  c3.613,0,6.595,2.752,6.961,6.27c-1.382,0.362-2.648,1.082-3.676,2.132l1.429,1.4C51.852,49.64,53.374,49,55,49c3.309,0,6,2.691,6,6  S58.309,61,55,61z M58,3h-2V1h2V3z M54.878,3.464l-1.414,1.414L52.05,3.464l1.414-1.414L54.878,3.464z M51,6h2v2h-2V6z   M53.464,9.122l1.414,1.414l-1.414,1.414l-1.414-1.414L53.464,9.122z M56,11h2v2h-2V11z M59.122,10.536l1.414-1.414l1.414,1.414  l-1.414,1.414L59.122,10.536z M61,6h2v2h-2V6z M60.536,4.878l-1.414-1.414l1.414-1.414l1.414,1.414L60.536,4.878z M8,53H6v-2h2V53z   M4.878,53.465l-1.414,1.414L2.05,53.465l1.414-1.414L4.878,53.465z M1,56h2v2H1V56z M3.464,59.121l1.414,1.414l-1.414,1.414  L2.05,60.535L3.464,59.121z M6,61h2v2H6V61z M9.122,60.535l1.414-1.414l1.414,1.414l-1.414,1.414L9.122,60.535z M11,58v-2h2v2H11z   M10.536,52.051l1.414,1.414l-1.414,1.414l-1.414-1.414L10.536,52.051z M17,8h2c0,2.206,1.794,4,4,4s4-1.794,4-4h2  c0,3.309-2.691,6-6,6S17,11.309,17,8z M21,38c0-1.654-1.346-3-3-3s-3,1.346-3,3h-2c0-2.757,2.243-5,5-5s5,2.243,5,5s-2.243,5-5,5v-2  C19.654,41,21,39.654,21,38z M39,34c0-1.654,1.346-3,3-3v2c-0.551,0-1,0.448-1,1s0.449,1,1,1v2C40.346,37,39,35.654,39,34z M23,20  c-1.654,0-3,1.346-3,3s1.346,3,3,3s3-1.346,3-3S24.654,20,23,20z M23,24c-0.551,0-1-0.449-1-1s0.449-1,1-1s1,0.449,1,1  S23.551,24,23,24z M36,20h-2v-2h2V20z M33,32h-2v-2h2V32z M10,25h2v2h-2V25z"/>
</svg>
