<svg height="496pt" viewBox="0 0 496 496" width="496pt" xmlns="http://www.w3.org/2000/svg" xmlns:xlink="http://www.w3.org/1999/xlink"><linearGradient id="a" gradientUnits="userSpaceOnUse" x1="248" x2="248" y1="496" y2="0"><stop offset="0" stop-color="#9f2fff"/><stop offset="1" stop-color="#0bb1d3"/></linearGradient><path d="m416 144c-3.144531 0-6.257812.257812-9.359375.625-7.335937-41.359375-43.824219-72.625-86.640625-72.625-10.960938 0-21.648438 2.121094-31.601562 5.984375-17.351563-46.328125-62.320313-77.984375-112.398438-77.984375-66.167969 0-120 53.832031-120 120 0 9.097656 1.023438 18.105469 3.03125 26.878906-33.960938 9.25-59.03125 40.273438-59.03125 77.121094 0 44.113281 35.886719 80 80 80v24h16v-24h88v24h16v-24h96v24h16v-24h88v24h16v-24c44.113281 0 80-35.886719 80-80s-35.886719-80-80-80zm0 144v-24h-16v24h-88v-24h-16v24h-96v-24h-16v24h-88v-24h-16v24c-35.289062 0-64-28.710938-64-64s28.710938-64 64-64 64 28.710938 64 64h16c0-44.113281-35.886719-80-80-80-1.726562 0-3.414062.152344-5.121094.257812-1.886718-7.90625-2.878906-16.035156-2.878906-24.257812 0-57.34375 46.65625-104 104-104 43.960938 0 83.335938 28.160156 97.945312 69.144531-14.082031 8.664063-25.761718 21.207031-33.175781 36.535157l14.398438 6.976562c11.960937-24.695312 37.40625-40.65625 64.832031-40.65625 35.265625 0 65.273438 25.910156 70.992188 60.078125-9.136719 3.011719-17.734376 7.601563-25.28125 13.707031l10.066406 12.4375c11.496094-9.3125 25.398437-14.222656 40.222656-14.222656 35.289062 0 64 28.710938 64 64s-28.710938 64-64 64zm-232-88h16v40h-16zm112 0h16v40h-16zm-40 176h-16v-56h16zm-40 85.664062v2.335938c0 17.648438 14.351562 32 32 32s32-14.351562 32-32v-2.335938c0-4.9375-1.167969-9.886718-3.375-14.3125l-28.625-57.238281-28.625 57.238281c-2.207031 4.425782-3.375 9.375-3.375 14.3125zm16 0c0-2.472656.585938-4.945312 1.6875-7.160156l14.3125-28.617187 14.3125 28.617187c1.101562 2.214844 1.6875 4.6875 1.6875 7.160156v2.335938c0 8.824219-7.175781 16-16 16s-16-7.175781-16-16zm160-69.664062v-2.335938c0-4.9375-1.167969-9.886718-3.375-14.3125l-28.625-57.238281-28.625 57.238281c-2.207031 4.425782-3.375 9.375-3.375 14.3125v2.335938c0 17.648438 14.351562 32 32 32s32-14.351562 32-32zm-48 0v-2.335938c0-2.472656.585938-4.945312 1.6875-7.160156l14.3125-28.617187 14.3125 28.617187c1.101562 2.214844 1.6875 4.6875 1.6875 7.160156v2.335938c0 8.824219-7.175781 16-16 16s-16-7.175781-16-16zm-176 0v-2.335938c0-4.9375-1.167969-9.886718-3.375-14.3125l-28.625-57.238281-28.625 57.238281c-2.207031 4.425782-3.375 9.375-3.375 14.3125v2.335938c0 17.648438 14.351562 32 32 32s32-14.351562 32-32zm-48 0v-2.335938c0-2.472656.585938-4.945312 1.6875-7.160156l14.3125-28.617187 14.3125 28.617187c1.101562 2.214844 1.6875 4.6875 1.6875 7.160156v2.335938c0 8.824219-7.175781 16-16 16s-16-7.175781-16-16zm0 0" fill="url(#a)"/></svg>