<svg id="Layer_35" enable-background="new 0 0 64 64" height="512" viewBox="0 0 64 64" width="512" xmlns="http://www.w3.org/2000/svg" xmlns:xlink="http://www.w3.org/1999/xlink"><linearGradient id="SVGID_1_" gradientUnits="userSpaceOnUse" x1="31.95" x2="31.95" y1="63" y2=".586"><stop offset="0" stop-color="#9f2fff"/><stop offset="1" stop-color="#0bb1d3"/></linearGradient><path d="m32 55h10v2h-10zm-20 4h4v-2h-4zm32.882-20.528-1.764-.943c-.986 1.846-1.843 2.782-1.849 2.789l1.461 1.365c.042-.045 1.031-1.114 2.152-3.211zm3.547-9.973c.153-.657.323-1.386.541-2.257l-1.939-.484c-.221.883-.394 1.62-.549 2.286-.547 2.339-.877 3.751-2.41 7.585l1.857.742c1.59-3.974 1.951-5.524 2.5-7.872zm14.571 24.501c0 5.514-4.486 10-10 10h-38c-4.411 0-8-3.589-8-8 0-2.39 1.059-4.533 2.726-6h-2.726c-3.309 0-6-2.691-6-6s2.691-6 6-6h.987c-.273-13.229-5.837-25.456-5.895-25.581l-1.193-2.587 2.548 1.273c.172.086 2.327 1.181 4.811 3.051-.669-1.736-1.625-3.653-2.153-4.709l-2.036-4.072 3.556 2.844c.152.122 2.809 2.259 5.04 4.606-.351-3.873-.895-7.049-1.559-8.378l-1.342-2.683 2.684 1.342c.281.14 4.711 2.446 8.303 9.461 2.149-5.821 5.39-9.121 5.543-9.273l1.706-1.708v16.426c1.935-2.613 4.19-4.724 6.553-5.906l2-1-.588 2.157c-.029.108-2.908 10.786-2.962 20.459 1.873.714 3.373 1.933 4.305 3.56.745-.172 1.599-.268 2.569-.276.068-.14.145-.268.209-.412.767-1.724 1.505-4.409 2.286-7.253 2.246-8.171 5.042-18.341 11.628-18.341 3.052 0 4 5.131 4 7 0 1.986-.902 7.489-1.003 8.102.651.68 1.003 1.658 1.003 2.898 0 1.185-.817 2.244-2.02 3.203-.088 2.153-1.611 5.14-3.98 7.954 0 .551-.008 1.196-.065 1.89 6.18.48 11.065 5.651 11.065 11.953zm-7-25c0-1.439-.561-2-2-2-1.05 0-1.717 2.748-1.928 5.313 2.609-1.422 3.928-2.535 3.928-3.313zm-5.75-13.975c1.536.13 2.75 1.406 2.75 2.975 0 1.654-1.346 3-3 3-1.016 0-1.912-.51-2.455-1.285-.166.396-.327.802-.485 1.216.986 2.529 3.709 3.882 8.093 4.037.272-1.715.847-5.513.847-6.968 0-.76-.141-1.637-.366-2.442-.519.731-.901 1.123-.927 1.149l-1.414-1.414c.005-.006.625-.65 1.35-1.892-.21-.249-.428-.401-.643-.401-1.438 0-2.669.773-3.75 2.025zm-1.25 2.975c0 .552.448 1 1 1s1-.448 1-1-.448-1-1-1-1 .448-1 1zm-14.471 27.984c-.869.687-1.824 1.441-2.266 2.008 8.145-.268 13.851-4.674 16.595-7.365 2.58-2.531 4.124-5.039 4.774-6.884-.711.402-1.453.785-2.185 1.151l-1.447.724v-1.618c0-1.072.106-5.186 1.545-7.461-2.694-.622-4.353-1.804-5.362-3.107-.694 2.13-1.309 4.353-1.882 6.439-.802 2.918-1.56 5.674-2.387 7.535-1.88 4.228-5.061 6.742-7.385 8.578zm9.013.984c.193.022.356.032.461.032 4.318 0 5.543-1.925 5.876-4.584-1.467 1.388-3.595 3.1-6.337 4.552zm-16.474 1.932-1.684 5.894c2.572-.727 5.24-3.204 6.22-4.793-.041 0-.079.004-.12.004-.167 0-.334-.002-.504-.005l-1.01-.02.045-1.537c.015-.507.194-.964.486-1.408-1.188-.921-3.39-2.339-5.79-2.847zm11.609-9.821c-1.149.13-2.022.435-2.677.882v.039h-.054c-1.204.852-1.676 2.187-1.848 3.771 1.484-1.195 3.189-2.691 4.579-4.692zm-9.677-4.079c-2.791 0-4.918 1.625-5.685 3h12.053c.005-.003.01-.005.014-.008-1.235-1.867-3.544-2.992-6.382-2.992zm-16.685 3h8.838c.198-.675.587-1.353 1.123-1.986-.862-.474-2.27-1.014-4.276-1.014-2.791 0-4.918 1.625-5.685 3zm11.704-3.507c.601-.394 1.272-.728 1.998-.981.124-2.171.975-5.598 1.014-5.754l1.939.484c-.008.033-.703 2.835-.91 4.812.308-.033.621-.054.94-.054.7 0 1.364.076 2.01.185.107-7.033 1.56-14.295 2.414-17.985-4.679 3.677-9.209 11.723-9.405 19.293zm-2.048-19.247c1.013 2.483 1.893 5.428 2.5 8.912.459-1.053.969-2.079 1.529-3.065v-14.263c-1.266 1.79-2.952 4.663-4.029 8.416zm-8.18-8.67c1.347 6.666 1.832 20.406.512 27.217 1.105-.491 2.361-.793 3.697-.793.355 0 .673.035 1 .062v-4.062h2v4.384c.377.1.732.211 1.052.333.112-1.841.449-3.736.988-5.616l-.033.003c-1.325-12.578-6.273-18.848-9.216-21.528zm-3.877 6.322c.512 1.265.909 2.511 1.031 3.524.731.697 1.433 1.46 2.081 2.27-.03-.836-.067-1.667-.114-2.483-.776-1.07-1.891-2.25-2.998-3.311zm.067 25.102h.172c.276-.942.924-1.893 1.832-2.711-.146-5.299-1.862-8.805-1.88-8.841l1.789-.895c.042.083.539 1.102 1.04 2.826.118-1.851.171-3.874.164-5.943-1.788-3.566-5.523-6.434-8.034-8.063 1.714 4.455 4.724 13.663 4.917 23.627zm51.019 16c0-5.31-4.165-9.656-9.398-9.969-.681 2.53-2.535 4.969-7.602 4.969-.21 0-1.831-.034-3.086-.814-2.096.836-4.467 1.458-7.091 1.7-.942 2.795-5.78 7.114-9.823 7.114h-1.326l2.258-7.9-3.55-7.1h1.618c3.662 0 7.197 2.246 8.872 3.57.045-.039.084-.076.13-.115.013-1.559.145-3.709 1.248-5.455h-26.25c-2.206 0-4 1.794-4 4s1.794 4 4 4h11v2h-3c-3.309 0-6 2.691-6 6s2.691 6 6 6h38c4.411 0 8-3.589 8-8zm-15-1h10v-2h-10zm-30 2h4v-2h-4zm-9-11h6v-2h-6zm35 9h2v-2h-2zm-24-9h-3v2h3zm1-21h-2v4h2z" fill="url(#SVGID_1_)"/></svg>