<svg id="Layer_5" enable-background="new 0 0 64 64" height="512" viewBox="0 0 64 64" width="512" xmlns="http://www.w3.org/2000/svg" xmlns:xlink="http://www.w3.org/1999/xlink"><linearGradient id="SVGID_1_" gradientUnits="userSpaceOnUse" x1="32" x2="32" y1="63" y2="1"><stop offset="0" stop-color="#9f2fff"/><stop offset="1" stop-color="#0bb1d3"/></linearGradient><path d="m60.797 36.313c-1.76-1.425-4.166-1.462-6.102-1.158l-4.857-9.714c-2.939-5.878-7.421-10.593-12.813-13.789.275-5.029 6.307-7.707 6.369-7.733l.606-.262v-2.657h-1c-10.509 0-15.946 3.325-18.709 6.283-1.41-.18-2.841-.283-4.291-.283-8.131 0-14.771 6.502-14.994 14.58l-3.092 3.092c-.581.581-.914 1.385-.914 2.207 0 1.721 1.4 3.121 3.146 3.121.739 0 1.463-.27 2.037-.758.594-.506 1.776-1.328 3.791-2.115 1.622 1.905 4.607 3.873 10.026 3.873h1.616l-.722-1.447c-.012-.024-1.063-2.149-1.595-4.369.295-.024.609-.041.916-.06 1.613 8.015 12.061 10.727 12.542 10.847l1.243.31v-7.281c0-.495.083-.951.212-1.377 6.487 3.144 12.021 8.366 15.206 11.782-.486 1.961-.862 5.067.786 7.252 1.173 1.555 3.117 2.343 5.779 2.343h.778l1.034-4.068c.07-.273.212-.524.412-.725.2-.2.45-.343.725-.412l4.068-1.034v-.777c0-2.579-.741-4.487-2.203-5.671zm-19.997-33.258c-2.014 1.259-5.053 3.752-5.678 7.55-2.623-1.33-5.428-2.319-8.36-2.917 2.306-1.963 6.56-4.253 14.038-4.633zm-22.367 25.881c-3.147-.27-5.127-1.345-6.367-2.508 1.438-.412 3.168-.777 5.239-1.035.292 1.318.744 2.6 1.128 3.543zm-8.416-3.943c1.333-1.443 4.028-3.025 10.338-3.68-.224.52-.355 1.088-.355 1.687 0 .045.005.088.005.133-4.36.287-7.614 1.025-9.988 1.86zm21.983 4.007v4.642c-2.926-1.023-10-4.164-10-10.642 0-1.199.93-2.198 2.119-2.274 1.244-.08 2.416-.119 3.506-.119 4.031 0 6.915.536 7.97 1.526.127.119.223.24.289.367-1.27.83-3.884 2.968-3.884 6.5zm3.146-3.146c.988-1.267 2.261-1.939 2.303-1.961l.551-.275v-.618c0-.886-.359-1.689-1.037-2.326-1.84-1.725-6.204-2.379-12.973-1.944-.245.016-.482.061-.714.116l-.001-.007-1.82.359c-11.357.886-13.331 4.606-14.393 6.606-.156.294-.315.59-.429.708-.807.466-1.377.891-1.747 1.207-.215.183-.471.281-.765.281-.618 0-1.121-.503-1.121-1.121 0-.295.12-.584.328-.793l3.672-3.672v-.414c0-7.168 5.832-13 13-13 11.955 0 22.703 6.643 28.05 17.336l6.885 13.77c.043.084.065.18.065.276 0 .341-.277.618-.618.618h-.611c-.184 0-.356-.08-.471-.219-2.033-2.454-9.191-10.56-18.154-14.927zm23.295 16.002c-.623.157-1.193.481-1.648.937-.454.454-.778 1.023-.937 1.646l-.644 2.532c-1.595-.12-2.741-.63-3.412-1.519-.86-1.141-.886-2.805-.704-4.177.255.295.485.567.662.781.496.6 1.229.943 2.012.943h.611c1.445.001 2.619-1.174 2.619-2.617 0-.404-.096-.81-.276-1.171l-1.082-2.164c1.359-.138 2.856-.022 3.897.821.836.677 1.317 1.801 1.434 3.345zm-44.441-26.856c0 .552-.448 1-1 1s-1-.448-1-1 .448-1 1-1 1 .448 1 1zm24.617 25h-1.617c-8.591 0-11.096 4.966-11.763 7h-2.237v2h24v-2h-10.926c.344-2.566 1.804-5.52 1.821-5.553zm-11.26 7c.703-1.626 2.685-4.468 8.075-4.935-.518 1.272-1.17 3.158-1.368 4.935zm-8.462 3.447.722-1.447h-1.617c-8.591 0-11.096 4.966-11.763 7h-2.237v2h24v-2h-10.926c.344-2.566 1.804-5.52 1.821-5.553zm-2.463.618c-.518 1.272-1.17 3.158-1.368 4.935h-6.707c.703-1.626 2.686-4.468 8.075-4.935zm30.463 4.382.722-1.447h-1.617c-8.591 0-11.096 4.966-11.763 7h-2.237v2h24v-2h-10.926c.344-2.566 1.804-5.52 1.821-5.553zm-2.463.618c-.518 1.272-1.17 3.158-1.368 4.935h-6.707c.703-1.626 2.686-4.468 8.075-4.935zm-19.432-16.065h-10.926c.344-2.566 1.804-5.52 1.821-5.553l.722-1.447h-1.617c-8.591 0-11.096 4.966-11.763 7h-2.237v2h24zm-11.568-4.935c-.518 1.272-1.17 3.158-1.368 4.935h-6.707c.703-1.626 2.686-4.468 8.075-4.935z" fill="url(#SVGID_1_)"/></svg>