<svg height="496pt" viewBox="0 0 496 496" width="496pt" xmlns="http://www.w3.org/2000/svg" xmlns:xlink="http://www.w3.org/1999/xlink"><linearGradient id="a" gradientUnits="userSpaceOnUse" x1="248" x2="248" y1="496" y2="0"><stop offset="0" stop-color="#9f2fff"/><stop offset="1" stop-color="#0bb1d3"/></linearGradient><path d="m432 128c-9.34375 0-18.199219 2.0625-26.214844 5.679688-8.386718-35.382813-40.464844-61.679688-77.785156-61.679688-9.425781 0-18.824219 1.695312-27.65625 4.960938-12.03125-45.152344-52.734375-76.960938-100.34375-76.960938-57.34375 0-104 46.65625-104 104 0 .183594.023438.367188.023438.550781-29.121094 3.648438-52.207032 26.898438-55.566407 56.105469-22.890625 3.632812-40.457031 23.449219-40.457031 47.34375 0 26.472656 21.527344 48 48 48h30.238281l-16 80h31.785157l-16 72h23.097656l55.382812-120h-33.398437l10.664062-32h95.824219l-32 120h41.269531l-16 120h22.457031l70.734376-168h-50.460938l13.085938-72h79.566406l-16 80h31.785156l-16 72h23.097656l55.382813-120h-33.398438l10.664063-32h18.222656c35.289062 0 64-28.710938 64-64s-28.710938-64-64-64zm-300.496094 176-26.945312 58.367188 9.417968-42.367188h-32.214843l12.796875-64h22.34375l-16.007813 48zm160.449219 40-47.832031 113.585938 13.023437-97.585938h-38.730469l27.730469-104h16.269531l-16 88zm119.550781-40-26.945312 58.367188 9.417968-42.367188h-32.214843l12.796875-64h22.34375l-16.007813 48zm20.496094-64h-384c-17.648438 0-32-14.351562-32-32s14.351562-32 32-32c6.785156 0 13.257812 2.097656 18.742188 6.0625l9.378906-12.964844c-5.863282-4.242187-12.511719-6.992187-19.519532-8.257812 3.46875-23.078125 23.367188-40.839844 47.398438-40.839844 26.472656 0 48 21.527344 48 48h16c0-32.566406-24.472656-59.472656-55.976562-63.441406 0-.191406-.023438-.375-.023438-.558594 0-48.519531 39.480469-88 88-88 43.183594 0 79.65625 30.9375 86.710938 73.550781l1.808593 10.929688 9.816407-5.160157c9.238281-4.847656 19.222656-7.320312 29.664062-7.320312 31.710938 0 58.710938 23.71875 63.257812 54.6875-14.195312 11.746094-23.257812 29.488281-23.257812 49.3125h16c0-26.472656 21.527344-48 48-48s48 21.527344 48 48-21.527344 48-48 48zm0 0" fill="url(#a)"/></svg>