<svg height="496pt" viewBox="0 -104 496 496" width="496pt" xmlns="http://www.w3.org/2000/svg" xmlns:xlink="http://www.w3.org/1999/xlink"><linearGradient id="linear0" gradientUnits="userSpaceOnUse" x1="248" x2="248" y1="288" y2="0"><stop offset="0" stop-color="#9f2fff"/><stop offset="1" stop-color="#0bb1d3"/></linearGradient><path d="m496 288v-16h-68.320312c7.632812-8.503906 12.320312-19.695312 12.320312-32h19.503906c20.128906 0 36.496094-16.367188 36.496094-36.496094v-167.007812c0-20.128906-16.367188-36.496094-36.496094-36.496094h-316.054687c-55.167969 0-103.042969 37.375-116.417969 90.894531l-25.933594 103.761719c-.730468 2.878906-1.097656 5.863281-1.097656 8.847656 0 20.128906 16.367188 36.496094 36.496094 36.496094h19.503906c0 12.304688 4.6875 23.496094 12.320312 32h-68.320312v16zm-152-48c0 17.648438-14.351562 32-32 32s-32-14.351562-32-32zm8 26.480469c1.296875 1.953125 2.761719 3.785156 4.320312 5.519531h-8.640624c1.558593-1.742188 3.023437-3.566406 4.320312-5.519531zm-75.679688 5.519531h-8.640624c1.558593-1.742188 3.023437-3.566406 4.320312-5.519531 1.296875 1.953125 2.761719 3.777343 4.320312 5.519531zm-44.320312 0c-17.648438 0-32-14.351562-32-32h64c0 17.648438-14.351562 32-32 32zm-35.679688 0h-56.640624c7.632812-8.503906 12.320312-19.695312 12.320312-32h32c0 12.304688 4.6875 23.496094 12.320312 32zm195.679688 0c-17.648438 0-32-14.351562-32-32h64c0 17.648438-14.351562 32-32 32zm-155.3125-224 80 80h-116.6875c-4.40625 0-8-3.59375-8-8v-64c0-4.40625 3.59375-8 8-8zm102.625 80-80-80h73.375l80 80zm96 0-80-80h124.6875v80zm24.191406-112c9.753906 0 17.902344 6.855469 19.960938 16h-279.464844c-13.230469 0-24 10.769531-24 24v64c0 13.230469 10.769531 24 24 24h280v48h-461.753906l12-48h73.753906c30.878906 0 56-25.121094 56-56v-32c0-13.230469-10.769531-24-24-24h-47.9375c16.160156-10.167969 35.195312-16 55.386719-16zm-391.070312 32h67.566406c4.40625 0 8 3.59375 8 8v32c0 22.054688-17.945312 40-40 40h-69.753906l8.304687-33.222656c4.527344-18.105469 13.648438-34.035156 25.882813-46.777344zm-31.9375 176c-9.753906 0-17.902344-6.855469-19.960938-16h462.9375c-2.058594 9.144531-10.207031 16-19.960937 16zm35.503906 16h64c0 17.648438-14.351562 32-32 32s-32-14.351562-32-32zm392-64h-16v-16h16zm-32 0h-16v-16h16zm-32 0h-16v-16h16zm0 0" fill="url(#linear0)"/></svg>