<svg height="496pt" viewBox="0 0 496 496" width="496pt" xmlns="http://www.w3.org/2000/svg" xmlns:xlink="http://www.w3.org/1999/xlink"><linearGradient id="a" gradientUnits="userSpaceOnUse" x1="248" x2="248" y1="496" y2="0"><stop offset="0" stop-color="#9f2fff"/><stop offset="1" stop-color="#0bb1d3"/></linearGradient><path d="m80 496h40v-24c0-30.878906-25.121094-56-56-56h-27.726562c-8.664063-10.425781-15.722657-22.167969-20.839844-34.976562l-14.859375 5.945312c5.753906 14.398438 13.691406 27.589844 23.425781 39.296875v13.734375c0 30.878906 25.121094 56 56 56zm24-24v8h-24c-21.0625 0-38.191406-16.414062-39.703125-37.105469 4.773437 4.167969 9.78125 8.097657 15.117187 11.65625l12.152344 8.105469 8.875-13.3125-12.152344-8.105469c-4.265624-2.839843-8.265624-5.964843-12.121093-9.238281h11.832031c22.054688 0 40 17.945312 40 40zm312-416v27.726562c-10.425781 8.664063-22.167969 15.722657-34.976562 20.839844l5.945312 14.859375c14.390625-5.761719 27.582031-13.691406 39.289062-23.433593h13.742188c30.878906 0 56-25.121094 56-56v-39.992188h-24c-30.878906 0-56 25.121094-56 56zm64-16c0 21.0625-16.414062 38.191406-37.105469 39.703125 4.167969-4.773437 8.097657-9.78125 11.65625-15.117187l8.105469-12.152344-13.3125-8.875-8.105469 12.152344c-2.839843 4.265624-5.964843 8.265624-9.238281 12.121093v-11.832031c0-22.054688 17.945312-40 40-40h8zm-464.566406 74.976562c5.117187-12.808593 12.175781-24.550781 20.839844-34.976562h27.726562c30.878906 0 56-25.121094 56-56v-24h-40c-30.878906 0-56 25.121094-56 56v13.734375c-9.734375 11.707031-17.671875 24.898437-23.433594 39.289063zm64.566406-98.976562h24v8c0 22.054688-17.945312 40-40 40h-11.832031c3.855469-3.273438 7.855469-6.398438 12.113281-9.238281l12.152344-8.105469-8.875-13.3125-12.152344 8.105469c-5.335938 3.558593-10.34375 7.488281-15.117188 11.65625 1.519532-20.691407 18.648438-37.105469 39.710938-37.105469zm185.976562 172.007812c7.375-9.183593 6.175782-18.398437 6.121094-18.785156l-.097656-1.222656c0-13.230469-10.769531-24-24-24-4.40625 0-8 3.59375-8 8s3.59375 8 8 8h8v16h-8c-13.230469 0-24-10.769531-24-24s10.769531-24 24-24c21.886719 0 39.71875 17.664062 40 39.488281.375 3.433594 1.0625 17-9.183594 30.085938-11.632812 14.851562-32.558594 23.539062-62.191406 25.816406l-1.226562-15.949219c24.378906-1.882812 41.875-8.601562 50.578124-19.433594zm-74.382812 20.199219.8125 15.976563c-76.796875 3.886718-113.0625 67.074218-113.421875 67.710937l-13.976563-7.78125c1.625-2.921875 40.710938-71.5625 126.585938-75.90625zm304.40625 33.632813c0 14.585937-3.800781 28.761718-10.984375 41-12.09375 20.601562-35.289063 45.160156-77.015625 45.160156-29.761719 0-56.289062-6.71875-84.375-13.832031-11.871094-3.007813-24.152344-6.113281-37.28125-8.886719l3.3125-15.65625c13.441406 2.839844 25.871094 5.992188 37.894531 9.03125 28.273438 7.167969 52.679688 13.34375 80.449219 13.34375 34.167969 0 53.238281-20.265625 63.222656-37.265625 5.746094-9.773437 8.777344-21.148437 8.777344-32.886719 0-36.3125-29.535156-65.847656-65.839844-65.847656-29.863281 0-54.160156 24.296875-54.160156 54.152344v5.847656c0 15.441406 12.558594 28 28 28s28-12.558594 28-28h16c0 24.265625-19.734375 44-44 44s-44-19.734375-44-44v-5.847656c0-38.679688 31.472656-70.152344 70.152344-70.152344 45.136718 0 81.847656 36.710938 81.847656 81.839844zm-296 38.160156c16.703125 0 32.710938.929688 48.9375 2.839844l-1.875 15.886718c-15.589844-1.832031-30.992188-2.726562-47.0625-2.726562-90.152344 0-144.550781 91.121094-145.097656 92.03125l-13.8125-8.0625c2.382812-4.082031 59.453125-99.96875 158.910156-99.96875zm200 112c0-13.230469-10.769531-24-24-24s-24 10.769531-24 24h-16c0-22.054688 17.945312-40 40-40s40 17.945312 40 40c0 .558594-.726562 56-64 56-40.511719 0-58.71875-15.648438-107.359375-57.472656l-9.847656-8.457032c-51.296875-43.972656-101.546875-23.597656-103.664063-22.710937l-6.28125-14.710937c2.480469-1.0625 61.257813-25.375 120.359375 25.28125l9.863281 8.46875c47.890626 41.175781 62.34375 53.601562 96.929688 53.601562 47.457031 0 48-38.367188 48-40zm-40-264h-16v-16h16zm-296 176v16h-16v-16zm376 176h-16v-16h16zm40-128h-16v-16h16zm-368-224h16v16h-16zm144-112h-16v-16h16zm-240 216h-16v-16h16zm0 0" fill="url(#a)"/></svg>